# xmcd
# Track frame offsets:
# 150
# 12415
# 23837
# 32899
# 43910
# 57035
# 67642
# 79255
# 91022
#
# Disc length: 1380 seconds
# Revision: 0
# Processed by: cddbd v1.5.2PL0 Copyright (c) Steve Scherf et al.
# Submitted via: VisiTrax 2.11.2.271 - For more info visit www.synapsa.com
#
DISCID=64056209
DTITLE=Various Artist - 30 #1 Country Hits Of The 1950's
DYEAR=1900
DGENRE=
TTITLE0=Hank Williams - Your Cheatin' Heart
TTITLE1=George Jones - White Lightning
TTITLE2=Jim Reeves - Billy Bayou
TTITLE3=Carl Smith - Hey Joe
TTITLE4=Hank Williams - Jambalaya (On The Bayou)
TTITLE5=Webb Pierce - In The Jailhouse Now
TTITLE6=Eddy Arnold - I Really Don't Want To Know
TTITLE7=Don Gibson - Oh Lonesome Me
TTITLE8=Porter Wagoner - A Satisfied Mind
EXTD=
EXTT0=
EXTT1=
EXTT2=
EXTT3=
EXTT4=
EXTT5=
EXTT6=
EXTT7=
EXTT8=
PLAYORDER=
